<svg xmlns="http://www.w3.org/2000/svg" xmlns:xlink="http://www.w3.org/1999/xlink" viewBox="0 0 432.87 89.54"><defs><style>.cls-1{fill:none;}.cls-2{clip-path:url(#clip-path);}.cls-3{fill:#fff;}</style><clipPath id="clip-path" transform="translate(0 0)"><rect class="cls-1" width="432.88" height="89.54"/></clipPath></defs><title>Habitat White (2)</title><g id="Layer_2" data-name="Layer 2"><g id="Layer_1-2" data-name="Layer 1"><g id="Habitat_White" data-name="Habitat White"><g class="cls-2"><g class="cls-2"><path class="cls-3" d="M175.62,78.44A20.9,20.9,0,0,1,153.71,58.6c0-.58,0-1.17,0-1.75a20.9,20.9,0,0,1,20-21.79c.61,0,1.21,0,1.82,0a20.6,20.6,0,0,1,21.76,19.38c0,.44,0,.88,0,1.32a22.89,22.89,0,0,1-6,16.73,21.3,21.3,0,0,1-15.51,6Zm22.22-47a31.84,31.84,0,0,0-23.93-7.31,31,31,0,0,0-17.45,7.21,1.78,1.78,0,0,1-3-1.28V1.81A1.78,1.78,0,0,0,151.72,0h-7.4a1.79,1.79,0,0,0-1.75,1.61v.9c0,.6,0,1.2,0,1.81V55.53a40,40,0,0,0,.69,8.17c3.49,16.23,15.48,25.47,32.92,25.47h.89a31.48,31.48,0,0,0,30-20.34,33.77,33.77,0,0,0-9.22-37.36" transform="translate(0 0)"/><path class="cls-3" d="M122.66,56.45a21,21,0,0,1-19.91,22,17.81,17.81,0,0,1-1.79,0A20.66,20.66,0,0,1,79,59.11c0-.65-.05-1.31,0-2A20.78,20.78,0,0,1,98.39,35.07a21.53,21.53,0,0,1,2.41,0,21,21,0,0,1,21.75,20.22c0,.42,0,.83,0,1.24M127,36a35.21,35.21,0,0,0-42.56-8.1A32.49,32.49,0,0,0,68.24,65.21,29.65,29.65,0,0,0,90.69,88.26a39.49,39.49,0,0,0,9.61,1.28,28,28,0,0,0,21-9.12,24.18,24.18,0,0,0,2-2.34V86a1.76,1.76,0,0,0,1.8,1.75h6.92A1.78,1.78,0,0,0,133.72,86V75.81c0-8,0-16.23-.17-24.32A26.32,26.32,0,0,0,127,35.88" transform="translate(0 0)"/><path class="cls-3" d="M349.73,56.45a21,21,0,0,1-19.92,22,17.6,17.6,0,0,1-1.78,0A20.67,20.67,0,0,1,306.17,59c0-.63-.05-1.26,0-1.9a20.77,20.77,0,0,1,19.39-22.06,19.61,19.61,0,0,1,2.3,0,21,21,0,0,1,21.75,20.22c0,.42,0,.83,0,1.24M354,36a35.21,35.21,0,0,0-42.56-8.1,32.48,32.48,0,0,0-16.16,37.36,29.64,29.64,0,0,0,22.45,23.05,39.49,39.49,0,0,0,9.61,1.28,28,28,0,0,0,21-9.12,25.61,25.61,0,0,0,1.94-2.34V86a1.78,1.78,0,0,0,1.8,1.76h7A1.78,1.78,0,0,0,360.85,86V75.81c0-8,0-16.23-.16-24.32a26.4,26.4,0,0,0-6.59-15.61" transform="translate(0 0)"/><path class="cls-3" d="M37.5,24.52A27.29,27.29,0,0,0,14.13,30a1.78,1.78,0,0,1-2.51-.2,1.68,1.68,0,0,1-.42-1.11V1.78A1.78,1.78,0,0,0,9.42,0H1.78A1.78,1.78,0,0,0,0,1.78V86a1.78,1.78,0,0,0,1.78,1.75H9.55A1.75,1.75,0,0,0,11.33,86V55A20.37,20.37,0,0,1,17,39.76a20.52,20.52,0,0,1,15.9-4.7A16.46,16.46,0,0,1,49.38,51.29c.4,7.07.4,14.35.43,21.36V85.92a1.77,1.77,0,0,0,1.78,1.77h7.73a1.78,1.78,0,0,0,1.78-1.77V52.54C60.87,37.36,52,26.86,37.33,24.46" transform="translate(0 0)"/><path class="cls-3" d="M287.35,61.39h-8.63A1.78,1.78,0,0,0,277,63v1.25a11.27,11.27,0,0,1-.2,2.6,11.35,11.35,0,0,1-11.35,11.36H265c-4.94.3-13.17-.59-14-9.58-.59-7.6-.63-15.43-.63-23V38A1.76,1.76,0,0,1,252,36.24h22.26A1.79,1.79,0,0,0,276,34.43a1.83,1.83,0,0,0-.59-1.28L267,25.74a1.8,1.8,0,0,0-1.15-.43H251.7a1.77,1.77,0,0,1-1.78-1.77V12a1.78,1.78,0,0,0-1.78-1.78h-7.31A1.78,1.78,0,0,0,239.05,12v3.29c0,.33-.16,33.64,0,54.21A19.06,19.06,0,0,0,246,83.28a24.86,24.86,0,0,0,17.38,6.09,29,29,0,0,0,4.21-.2A22.48,22.48,0,0,0,283.82,80a21.09,21.09,0,0,0,3.85-17.08Z" transform="translate(0 0)"/><path class="cls-3" d="M416.42,63.07l-.2-1.51h-9a1.77,1.77,0,0,0-1.75,1.64v3.59a11.37,11.37,0,0,1-11.19,11.53h-.43c-5,.3-13.53-.52-14.22-9.71-.59-7.77-.56-15.77-.56-23.5V38.05a1.74,1.74,0,0,1,1.71-1.77h21.79a1.78,1.78,0,0,0,1.09-3.3l-9.25-7.27a1.8,1.8,0,0,0-1.09-.4h-12.7a1.78,1.78,0,0,1-1.78-1.77V12.41a1.78,1.78,0,0,0-1.78-1.78h-7.67a1.78,1.78,0,0,0-1.77,1.78V16c0,.33,0,33.15.32,53.52a20.33,20.33,0,0,0,16.46,18.87,40.62,40.62,0,0,0,8.73.82h1.51a22.44,22.44,0,0,0,16.79-7.8,23.06,23.06,0,0,0,5.07-18.34" transform="translate(0 0)"/><path class="cls-3" d="M219,87.73h7.44A1.78,1.78,0,0,0,228.26,86V27.45a1.79,1.79,0,0,0-1.75-1.78h-7.44a1.79,1.79,0,0,0-1.81,1.75V85.85A1.78,1.78,0,0,0,219,87.63" transform="translate(0 0)"/><path class="cls-3" d="M219,18.1h7.44a1.78,1.78,0,0,0,1.78-1.77V8.89a1.78,1.78,0,0,0-1.78-1.78H219a1.78,1.78,0,0,0-1.78,1.78v7.44A1.78,1.78,0,0,0,219,18.1" transform="translate(0 0)"/><path class="cls-3" d="M421.48,22.87v-9h3.82a6.59,6.59,0,0,1,2.09.24,2.07,2.07,0,0,1,1,.86,2.63,2.63,0,0,1,.39,1.42,2.52,2.52,0,0,1-.33,1.31,2,2,0,0,1-.26.36,2.69,2.69,0,0,1-1.51.79c.17.18.42.45.7.79a10.42,10.42,0,0,1,1,1.46c.24.37.61,1,1.1,1.75h-2.17l-1.31-1.95a12,12,0,0,0-.95-1.32,1.37,1.37,0,0,0-.55-.38,2.87,2.87,0,0,0-.91-.1h-.37v3.75Zm1.81-5.18h1.34a7.11,7.11,0,0,0,1.63-.11,1,1,0,0,0,.51-.38,1.21,1.21,0,0,0,.19-.68,1.09,1.09,0,0,0-.25-.73,1.14,1.14,0,0,0-.68-.35q-.22,0-1.32,0h-1.42Z" transform="translate(0 0)"/><path class="cls-3" d="M424.85,26.4a7.94,7.94,0,0,1-3.12-.63,7.44,7.44,0,0,1-1.36-.74,7,7,0,0,1-1.19-1,8.52,8.52,0,0,1-1-1.18,8,8,0,0,1,0-9,8.52,8.52,0,0,1,1-1.18,7,7,0,0,1,1.19-1,7.44,7.44,0,0,1,1.36-.74A8.07,8.07,0,0,1,428,11a8.16,8.16,0,0,1,1.36.74,8,8,0,0,1,2.9,3.53,7.93,7.93,0,0,1,0,6.24,8,8,0,0,1-2.9,3.53,8.16,8.16,0,0,1-1.36.74,8,8,0,0,1-3.13.63m0-15.36a7.34,7.34,0,1,0,7.35,7.34A7.34,7.34,0,0,0,424.85,11" transform="translate(0 0)"/></g></g></g></g></g></svg>