<svg xmlns="http://www.w3.org/2000/svg" xmlns:xlink="http://www.w3.org/1999/xlink" viewBox="0 0 436.11 158.81"><defs><style>.cls-1{fill:none;}.cls-2{clip-path:url(#clip-path);}.cls-3{fill:#fff;}.cls-4{fill:#ee9721;}</style><clipPath id="clip-path" transform="translate(0 0)"><rect class="cls-1" width="436.11" height="158.81"/></clipPath></defs><title>Chef Horizontal Inverse</title><g id="Layer_2" data-name="Layer 2"><g id="Layer_1-2" data-name="Layer 1"><g id="Chef_Horizontal_Inverse" data-name="Chef Horizontal Inverse"><g class="cls-2"><g class="cls-2"><path class="cls-3" d="M184.28,79.67v-.2a29.13,29.13,0,0,1,28.65-29.59c.41,0,.81,0,1.21,0a29.6,29.6,0,0,1,22.6,8.85l-8,9.26a21.14,21.14,0,0,0-14.64-6.37c-9.66,0-16.6,8-16.6,17.85s6.79,18,16.6,18c6.56,0,10.56-2.55,15.05-6.71l8,8.11a29.26,29.26,0,0,1-23.49,10.2A28.92,28.92,0,0,1,184.28,80.6q0-.46,0-.93" transform="translate(0 0)"/><polygon class="cls-3" points="251.74 50.88 264.33 50.88 264.33 73.55 287.59 73.55 287.59 50.88 300.19 50.88 300.19 108.16 287.59 108.16 287.59 85.16 264.33 85.16 264.33 108.16 251.74 108.16 251.74 50.88"/><polygon class="cls-3" points="315.57 50.88 358.8 50.88 358.8 62.1 328.09 62.1 328.09 73.7 355.1 73.7 355.1 84.93 328.09 84.93 328.09 96.97 359.21 96.97 359.21 108.16 315.57 108.16 315.57 50.88"/><polygon class="cls-3" points="375.69 50.88 419.3 50.88 419.3 62.33 388.29 62.33 388.29 74.52 415.6 74.52 415.6 86 388.29 86 388.29 108.16 375.69 108.16 375.69 50.88"/><path class="cls-3" d="M428.79,59.2V53.43h2.45a4.28,4.28,0,0,1,1.34.16,1.33,1.33,0,0,1,.67.55,1.66,1.66,0,0,1,.25.91,1.61,1.61,0,0,1-.21.84,1.25,1.25,0,0,1-.17.23,1.79,1.79,0,0,1-1,.52c.11.11.27.28.45.5a6.06,6.06,0,0,1,.67.94l.7,1.12h-1.39L431.74,58a8.36,8.36,0,0,0-.62-.85.79.79,0,0,0-.35-.24,2,2,0,0,0-.58-.07H430V59.2ZM430,55.87h.86a4.34,4.34,0,0,0,1.05-.07.62.62,0,0,0,.33-.24.83.83,0,0,0,.11-.43.7.7,0,0,0-.15-.47.72.72,0,0,0-.44-.23c-.1,0-.38,0-.85,0H430Z" transform="translate(0 0)"/><path class="cls-3" d="M431,61.47a5.15,5.15,0,0,1-2-.4,4.92,4.92,0,0,1-.87-.48,5.3,5.3,0,0,1-1.39-1.39,4.92,4.92,0,0,1-.48-.87,5.25,5.25,0,0,1,0-4,4.92,4.92,0,0,1,.48-.87,4.61,4.61,0,0,1,.63-.77,5.78,5.78,0,0,1,.76-.63,5.61,5.61,0,0,1,.87-.47,5.13,5.13,0,0,1,4,0,5.61,5.61,0,0,1,.87.47,5,5,0,0,1,1.4,1.4,5.61,5.61,0,0,1,.47.87,5.13,5.13,0,0,1,0,4,5.61,5.61,0,0,1-.47.87,5.78,5.78,0,0,1-.63.76,4.61,4.61,0,0,1-.77.63,4.92,4.92,0,0,1-.87.48,5.11,5.11,0,0,1-2,.4m0-9.87a4.72,4.72,0,1,0,4.72,4.72A4.73,4.73,0,0,0,431,51.6" transform="translate(0 0)"/><path class="cls-3" d="M79.41,128.41a49.18,49.18,0,0,0,47.87-38.52H114.35a36.49,36.49,0,1,1,0-21h12.93a49,49,0,1,0-47.87,59.49" transform="translate(0 0)"/><path class="cls-4" d="M78.91,45.58a33.81,33.81,0,0,0-30.66,47l12.22-5.37A20.48,20.48,0,0,1,78.91,58.93Z" transform="translate(0 0)"/><path class="cls-4" d="M87.29,98.29l4.84,12.45a34.18,34.18,0,0,0,19.43-20.85H97a20.56,20.56,0,0,1-9.7,8.4" transform="translate(0 0)"/><path class="cls-3" d="M142.73,89.89H130a51.79,51.79,0,0,1-50.1,41.18v12.52a64.28,64.28,0,0,0,62.83-53.7" transform="translate(0 0)"/><path class="cls-3" d="M78.91,27.73V15.22A64.68,64.68,0,0,0,19.77,55.66L31.44,60.2A52.08,52.08,0,0,1,78.91,27.73" transform="translate(0 0)"/><path class="cls-3" d="M92.13,48.07,87.29,60.51A20.64,20.64,0,0,1,97,68.92h14.57A34.18,34.18,0,0,0,92.13,48.07" transform="translate(0 0)"/><path class="cls-3" d="M78.9,113.23V99.88a20.4,20.4,0,0,1-13.62-5.65l-9.43,9.43a33.62,33.62,0,0,0,23.05,9.57" transform="translate(0 0)"/><path class="cls-3" d="M158.12,68.92A78.38,78.38,0,0,0,147,37.78l-10.67,6.66a65.76,65.76,0,0,1,9.07,24.48Z" transform="translate(0 0)"/><path class="cls-4" d="M158.12,89.89H145.44a67.29,67.29,0,0,1-66,56.37A66.38,66.38,0,0,1,32.52,127l-8.9,8.9a79.4,79.4,0,0,0,134.5-46" transform="translate(0 0)"/><path class="cls-4" d="M103.14,19.77,98.6,31.45A52.19,52.19,0,0,1,130,68.92h12.73a64.47,64.47,0,0,0-39.6-49.15" transform="translate(0 0)"/><path class="cls-3" d="M18,105.85A66.49,66.49,0,0,1,12.58,79.9H0a78.83,78.83,0,0,0,6.5,31Z" transform="translate(0 0)"/><path class="cls-4" d="M55.1,138.8l4.65-11.62a51.47,51.47,0,0,1-32-47.28H15.22A63.93,63.93,0,0,0,55.1,138.8" transform="translate(0 0)"/><path class="cls-4" d="M34.09,14.2A79.22,79.22,0,0,0,5.58,50.14L17.29,54.7A67.37,67.37,0,0,1,79.41,12.55a66.2,66.2,0,0,1,39.56,13l7.52-10.08a79.4,79.4,0,0,0-92.4-1.27" transform="translate(0 0)"/></g></g></g></g></g></svg>